<svg xmlns="http://www.w3.org/2000/svg" width="1600" height="900" viewBox="0 0 1600 900">
  <defs>
    <linearGradient id="bg3" x1="0" y1="0" x2="1" y2="1">
      <stop offset="0" stop-color="#32d0ff" stop-opacity="0.75"/>
      <stop offset="1" stop-color="#1ee3a6" stop-opacity="0.70"/>
    </linearGradient>
  </defs>
  <rect width="1600" height="900" fill="#0f1a31"/>
  <rect x="40" y="40" width="1520" height="820" rx="36" fill="url(#bg3)" opacity="0.22"/>
  <g fill="#eaf0ff" opacity="0.92">
    <text x="140" y="220" font-family="ui-sans-serif, system-ui, Segoe UI" font-size="56" font-weight="800">
      Placeholder image
    </text>
    <text x="140" y="290" font-family="ui-sans-serif, system-ui, Segoe UI" font-size="28" font-weight="600" opacity="0.85">
      Add your VGA screenshots here
    </text>
  </g>
  <g opacity="0.55">
    <rect x="140" y="360" width="1320" height="430" rx="28" fill="#0b1220" opacity="0.55" stroke="#ffffff" stroke-opacity="0.16"/>
    <g fill="#eaf0ff" opacity="0.20">
      <rect x="220" y="430" width="380" height="18" rx="9"/>
      <rect x="220" y="468" width="520" height="18" rx="9"/>
      <rect x="220" y="506" width="460" height="18" rx="9"/>
      <rect x="220" y="564" width="700" height="18" rx="9"/>
      <rect x="220" y="602" width="600" height="18" rx="9"/>
      <rect x="220" y="640" width="520" height="18" rx="9"/>
    </g>
    <rect x="980" y="430" width="400" height="290" rx="22" fill="#101f3d" stroke="#ffffff" stroke-opacity="0.16"/>
    <circle cx="1180" cy="575" r="78" fill="#32d0ff" opacity="0.30"/>
  </g>
</svg>
